name pl02_filtered_grf.mot
datacolumns 37
datarows 10
range 1.090000 1.094500
endheader
time	1_ground_force_vx	1_ground_force_vy	1_ground_force_vz	1_ground_force_px	1_ground_force_py	1_ground_force_pz	1_ground_torque_x	1_ground_torque_y	1_ground_torque_z	2_ground_force_vx	2_ground_force_vy	2_ground_force_vz	2_ground_force_px	2_ground_force_py	2_ground_force_pz	2_ground_torque_x	2_ground_torque_y	2_ground_torque_z	3_ground_force_vx	3_ground_force_vy	3_ground_force_vz	3_ground_force_px	3_ground_force_py	3_ground_force_pz	3_ground_torque_x	3_ground_torque_y	3_ground_torque_z	4_ground_force_vx	4_ground_force_vy	4_ground_force_vz	4_ground_force_px	4_ground_force_py	4_ground_force_pz	4_ground_torque_x	4_ground_torque_y	4_ground_torque_z
            1.090000	          -63.099509	         1006.371922	          302.669142	            0.116842	            0.000000	            0.211471	           -1.393224	           22.220475	            6.682869	           57.858601	         1003.795989	          309.311595	           -0.205134	            0.000000	            0.230470	            2.304990	           39.989558	           12.322458	            0.643766	           -0.020082	            0.457471	            0.413059	            1.262538	            1.872153	            0.006280	            0.021202	            0.029468	           -0.704637	           -2.221400	           -1.779456	           -0.353935	            1.256609	            1.899730	            0.028952	           -0.047180	            0.042802
            1.090500	          -62.169192	         1007.763761	          301.329998	            0.116838	            0.000000	            0.211575	           -1.380409	           22.376454	            6.690751	           58.287504	         1007.861839	          307.574498	           -0.204963	            0.000000	            0.230723	            2.308706	           39.920338	           12.182699	            0.645968	           -0.017891	            0.471515	            0.413060	            1.262537	            1.872146	            0.006638	            0.021217	            0.029160	           -0.726025	           -2.221447	           -1.776162	           -0.353931	            1.256608	            1.899719	            0.028857	           -0.047608	            0.042741
            1.091000	          -61.240918	         1009.097950	          299.986388	            0.116835	            0.000000	            0.211677	           -1.367364	           22.530753	            6.697981	           58.732661	         1011.780747	          305.888425	           -0.204802	            0.000000	            0.230951	            2.313596	           39.856058	           12.049554	            0.647899	           -0.016524	            0.484938	            0.413061	            1.262535	            1.872138	            0.007015	            0.021230	            0.028869	           -0.747972	           -2.220500	           -1.773119	           -0.353927	            1.256607	            1.899709	            0.028765	           -0.048027	            0.042671
            1.091500	          -60.316306	         1010.371867	          298.637703	            0.116833	            0.000000	            0.211777	           -1.354118	           22.683130	            6.704500	           59.192539	         1015.552869	          304.252781	           -0.204653	            0.000000	            0.231154	            2.319589	           39.796655	           11.922809	            0.649528	           -0.015993	            0.497722	            0.413062	            1.262534	            1.872131	            0.007410	            0.021241	            0.028597	           -0.770364	           -2.218573	           -1.770320	           -0.353923	            1.256606	            1.899698	            0.028677	           -0.048436	            0.042591
            1.092000	          -59.396922	         1011.583029	          297.283383	            0.116831	            0.000000	            0.211875	           -1.340701	           22.833353	            6.710251	           59.665627	         1019.178765	          302.666740	           -0.204513	            0.000000	            0.231334	            2.326612	           39.742035	           11.802240	            0.650822	           -0.016306	            0.509854	            0.413063	            1.262533	            1.872123	            0.007821	            0.021251	            0.028343	           -0.793093	           -2.215681	           -1.767760	           -0.353919	            1.256605	            1.899688	            0.028594	           -0.048836	            0.042502
            1.092500	          -58.484272	         1012.729086	          295.922920	            0.116831	            0.000000	            0.211972	           -1.327146	           22.981202	            6.715186	           60.150439	         1022.659363	          301.129265	           -0.204383	            0.000000	            0.231491	            2.334595	           39.692073	           11.687611	            0.651751	           -0.017467	            0.521317	            0.413064	            1.262532	            1.872115	            0.008249	            0.021260	            0.028110	           -0.816046	           -2.211847	           -1.765435	           -0.353915	            1.256604	            1.899678	            0.028514	           -0.049226	            0.042404
            1.093000	          -57.579807	         1013.807824	          294.555862	            0.116832	            0.000000	            0.212066	           -1.313481	           23.126468	            6.719258	           60.645503	         1025.995923	          299.639123	           -0.204261	            0.000000	            0.231627	            2.343468	           39.646616	           11.578679	            0.652287	           -0.019476	            0.532098	            0.413065	            1.262531	            1.872109	            0.008691	            0.021267	            0.027897	           -0.839102	           -2.207087	           -1.763354	           -0.353911	            1.256603	            1.899669	            0.028439	           -0.049604	            0.042299
            1.093500	          -56.684921	         1014.817155	          293.181816	            0.116833	            0.000000	            0.212158	           -1.299740	           23.268948	            6.722425	           61.149367	         1029.190002	          298.194906	           -0.204147	            0.000000	            0.231742	            2.353161	           39.605482	           11.475192	            0.652399	           -0.022335	            0.542185	            0.413066	            1.262530	            1.872103	            0.009147	            0.021273	            0.027706	           -0.862168	           -2.201436	           -1.761499	           -0.353908	            1.256602	            1.899660	            0.028368	           -0.049972	            0.042186
            1.094000	          -55.800950	         1015.755121	          291.800450	            0.116837	            0.000000	            0.212249	           -1.285953	           23.408449	            6.724648	           61.660589	         1032.243417	          296.795047	           -0.204041	            0.000000	            0.231839	            2.363604	           39.568465	           11.376894	            0.652060	           -0.026038	            0.551567	            0.413067	            1.262529	            1.872096	            0.009616	            0.021278	            0.027537	           -0.885138	           -2.194927	           -1.759865	           -0.353904	            1.256602	            1.899651	            0.028301	           -0.050328	            0.042067
            1.094500	          -54.929174	         1016.619886	          290.411499	            0.116841	            0.000000	            0.212337	           -1.272152	           23.544780	            6.725891	           62.177736	         1035.158217	          295.437842	           -0.203942	            0.000000	            0.231917	            2.374726	           39.535332	           11.283525	            0.651242	           -0.030576	            0.560235	            0.413068	            1.262528	            1.872090	            0.010096	            0.021281	            0.027391	           -0.907910	           -2.187593	           -1.758446	           -0.353900	            1.256601	            1.899642	            0.028238	           -0.050671	            0.041941
